<svg xmlns="http://www.w3.org/2000/svg" viewBox="0 0 64 64" width="100%" height="100%" fill="none" stroke="currentColor" strokeWidth="1.5">
  <path d="M36.25,36.29c-4.66-8.19-13.58-6.66-16.39,2.78-2.89,9.25-2.14,13.65,2.78,14.2a3.92,3.92,0,0,1,3,2c2.36,4.35,6.72,3.4,14.2-2.76C47.52,46.37,45.59,37.53,36.25,36.29Z"/>
  <path d="M36.29,36.32S38,32.65,35.31,26"/>
  <path d="M45.83,30.65A6.68,6.68,0,0,0,36.5,36,6.69,6.69,0,0,0,45.83,30.65Z"/>
  <line x1="21.17" y1="9.77" x2="21.17" y2="25.68"/>
  <line x1="32" y1="4.82" x2="32" y2="20.73"/>
  <line x1="42.83" y1="9.77" x2="42.83" y2="25.68"/>
</svg>