<svg xmlns="http://www.w3.org/2000/svg" viewBox="0 0 64 64" width="100%" height="100%" fill="none" stroke="currentColor" strokeWidth="1.5">
  <path d="M19.37,27a18.46,18.46,0,0,1-2.45-5.3l-.35-1.45a9.73,9.73,0,0,1,1.69-8.51C20.59,8.72,24.5,7,29,7H35c4.52,0,8.44,1.7,10.76,4.69a9.72,9.72,0,0,1,1.69,8.54L47.1,21.6A18.58,18.58,0,0,1,44.63,27"/>
  <path d="M42,55.47a18.28,18.28,0,1,0-20,0Z"/>
  <path d="M40.47,24.19a13.41,13.41,0,0,0,1.79-3.84L42.58,19a4.7,4.7,0,0,0-.8-4.21C40.42,13,37.94,12,35,12H29c-3,0-5.45,1-6.82,2.76a4.7,4.7,0,0,0-.8,4.19l.35,1.45a13.32,13.32,0,0,0,1.77,3.77"/>
  <line x1="23.05" y1="33.89" x2="23.05" y2="44.89"/>
  <line x1="30.19" y1="34.38" x2="23.04" y2="41.53"/>
  <line x1="30.36" y1="44.39" x2="25.89" y2="38.68"/>
  <path d="M42.21,36.06c-3.81-3-8.69-1.17-8.69,3.33a4.76,4.76,0,0,0,8.17,3.32V39.27"/>
</svg>