<svg xmlns="http://www.w3.org/2000/svg" viewBox="0 0 845.42 68.34"><defs><style>.cls-1{fill:#fff;}</style></defs><g id="Camada_2" data-name="Camada 2"><g id="Camada_1-2" data-name="Camada 1"><polygon class="cls-1" points="60.68 67.12 9.64 15.4 9.64 67.12 0 67.12 0 1.13 9.06 1.13 60.1 53.02 60.1 1.13 69.65 1.13 69.65 67.12 60.68 67.12"/><polygon class="cls-1" points="240.3 67.12 207.35 1.13 218.14 1.13 245.91 56.76 273.69 1.13 284.44 1.13 251.21 67.12 240.3 67.12"/><path class="cls-1" d="M335.67,1.13h-9.05l-34.54,66h10.7l28.38-54.21L359.5,67.12h10.7Z"/><path class="cls-1" d="M473.52,68.34a63.33,63.33,0,0,1-16.06-2,38.3,38.3,0,0,1-13.22-6.17,29.73,29.73,0,0,1-8.95-10.73,34.2,34.2,0,0,1-3.23-15.31,36.16,36.16,0,0,1,1.49-10.67,30.86,30.86,0,0,1,4.2-8.69,28.44,28.44,0,0,1,6.57-6.66,37.51,37.51,0,0,1,8.42-4.6A48.24,48.24,0,0,1,462.6.86,67.49,67.49,0,0,1,473.52,0a62.75,62.75,0,0,1,16,2,38,38,0,0,1,13.13,6.18,29.92,29.92,0,0,1,8.89,10.72,34.2,34.2,0,0,1,3.23,15.31,34.2,34.2,0,0,1-3.23,15.31,29.76,29.76,0,0,1-8.89,10.72,38,38,0,0,1-13.13,6.18A62.75,62.75,0,0,1,473.52,68.34Zm0-59.33a51.13,51.13,0,0,0-14,1.73,27.29,27.29,0,0,0-9.83,4.88,20,20,0,0,0-5.83,7.76,27.25,27.25,0,0,0-2,10.79,27.46,27.46,0,0,0,2,10.85,20,20,0,0,0,5.84,7.74,27,27,0,0,0,9.82,4.86,51.64,51.64,0,0,0,14,1.71,51.52,51.52,0,0,0,14-1.7,26.86,26.86,0,0,0,9.73-4.86A20.13,20.13,0,0,0,503,45a27.72,27.72,0,0,0,2-10.86,27.72,27.72,0,0,0-2-10.86,20.13,20.13,0,0,0-5.77-7.74,26.86,26.86,0,0,0-9.73-4.86A51.52,51.52,0,0,0,473.52,9Z"/><path class="cls-1" d="M602.44,67.12,582.5,40.48l-1.55.07c-.9,0-1.82,0-2.78,0H555V67.12h-9.64v-66h32.86a60.08,60.08,0,0,1,12.56,1.15,25.11,25.11,0,0,1,9,3.65,15.34,15.34,0,0,1,5.41,6.4A21.11,21.11,0,0,1,606.79,21c0,5.11-1.4,9.3-4.15,12.44-2.22,2.53-5.5,4.42-9.79,5.63l21.75,28.1ZM572,31.31c4.9,0,9.08-.14,12.43-.42a26.78,26.78,0,0,0,7.76-1.61,7.24,7.24,0,0,0,3.67-2.92A10.74,10.74,0,0,0,597,21a11.14,11.14,0,0,0-1.14-5.44,7.16,7.16,0,0,0-3.61-3,26.2,26.2,0,0,0-7.69-1.68c-3.34-.31-7.51-.46-12.39-.46H555v20.9Z"/><path class="cls-1" d="M642.28,67.12v-66h37c1.81,0,3.66.08,5.49.23a34.89,34.89,0,0,1,5.44.89,22.82,22.82,0,0,1,5,1.85,14.48,14.48,0,0,1,4.23,3.3,14.7,14.7,0,0,1,2.83,4.9,19.62,19.62,0,0,1,1,6.53,18.3,18.3,0,0,1-.85,5.87,12,12,0,0,1-2.7,4.54,13.28,13.28,0,0,1-2.95,2.27l.57.2a16.58,16.58,0,0,1,5.93,3.71,14.26,14.26,0,0,1,3.46,5.63,21.79,21.79,0,0,1,1.06,7A20.61,20.61,0,0,1,706.67,55a15.93,15.93,0,0,1-3,5.24A15.65,15.65,0,0,1,699,63.77a26.89,26.89,0,0,1-5.64,2,40,40,0,0,1-6.4,1c-2.22.19-4.53.28-6.89.28ZM679.7,58a55.94,55.94,0,0,0,9.17-.63,15.59,15.59,0,0,0,5.5-1.84A6.39,6.39,0,0,0,697,52.64a11.78,11.78,0,0,0,.84-4.73,11.63,11.63,0,0,0-1-5.11,7.84,7.84,0,0,0-3-3.24,17,17,0,0,0-5.8-2.05,50.42,50.42,0,0,0-9.07-.71h-27V58Zm-2.3-30.14a42,42,0,0,0,9.28-.82,13.48,13.48,0,0,0,4.88-2,4.94,4.94,0,0,0,1.86-2.45,12.08,12.08,0,0,0,.52-3.59,16.83,16.83,0,0,0-.16-2.34,5.32,5.32,0,0,0-.6-1.83,6,6,0,0,0-1.36-1.65,8.59,8.59,0,0,0-2.64-1.4,25.38,25.38,0,0,0-4.73-1.07,52.09,52.09,0,0,0-7.05-.41H651.92V27.84Z"/><rect class="cls-1" x="739.62" y="1.13" width="9.64" height="65.99"/><path class="cls-1" d="M812.74,68.34a86.93,86.93,0,0,1-15-1.2,87.94,87.94,0,0,1-12.81-3.28l-1.36-.46V51.54l3,1.8a38.84,38.84,0,0,0,12.33,4.77,72.53,72.53,0,0,0,14,1.31,68.68,68.68,0,0,0,9.55-.61,30.46,30.46,0,0,0,7.32-1.87,11.12,11.12,0,0,0,4.35-3,6.23,6.23,0,0,0,1.37-4.14,5.27,5.27,0,0,0-1.07-3.31,11.46,11.46,0,0,0-3.38-2.88,29.34,29.34,0,0,0-5.49-2.42c-2.2-.74-4.55-1.43-7-2.06s-5.06-1.28-7.69-1.89-5.32-1.3-7.84-2-5-1.58-7.3-2.5a28.91,28.91,0,0,1-6.3-3.42,17,17,0,0,1-4.5-4.79,12.52,12.52,0,0,1-1.76-6.6,14.53,14.53,0,0,1,1.38-6.4,14.94,14.94,0,0,1,3.72-4.82,21,21,0,0,1,5.31-3.27,34.87,34.87,0,0,1,6.25-2,53.47,53.47,0,0,1,6.77-1C809,.11,811.27,0,813.5,0c2.45,0,4.82.11,7,.33s4.34.5,6.38.85,4,.76,6,1.22,3.87.94,5.84,1.45l1.5.4V15.48l-2.87-1.39c-1.15-.56-2.48-1.16-4-1.79a38,38,0,0,0-5-1.64A57.3,57.3,0,0,0,822,9.42a58.11,58.11,0,0,0-7.94-.5,64.78,64.78,0,0,0-9.44.61,25.57,25.57,0,0,0-6.7,1.81,9.51,9.51,0,0,0-3.75,2.75A5.73,5.73,0,0,0,793,17.7a4.28,4.28,0,0,0,1,2.83,11.49,11.49,0,0,0,3.39,2.63,34.24,34.24,0,0,0,5.54,2.32c2.19.72,4.55,1.4,7,2s5.1,1.3,7.75,2,5.35,1.4,7.87,2.17a74.89,74.89,0,0,1,7.33,2.64,29.6,29.6,0,0,1,6.3,3.56,17.4,17.4,0,0,1,4.48,4.9,12.68,12.68,0,0,1,1.76,6.67,15.35,15.35,0,0,1-1.53,7,16,16,0,0,1-4,5.1,22.08,22.08,0,0,1-5.75,3.43A39.43,39.43,0,0,1,827.34,67,58.41,58.41,0,0,1,820.05,68C817.58,68.24,815.12,68.34,812.74,68.34Z"/><path class="cls-1" d="M167.33,52.77a26.86,26.86,0,0,1-9.73,4.86,51.52,51.52,0,0,1-14,1.7,51.64,51.64,0,0,1-14-1.71,27,27,0,0,1-9.82-4.86,19.42,19.42,0,0,1-2.14-2A9.29,9.29,0,0,0,113.06,48c-3.41-.86-6.41-1.83-9.33-2.8a28.76,28.76,0,0,0,1.67,4.24,29.73,29.73,0,0,0,8.95,10.73,38.33,38.33,0,0,0,13.21,6.17,63.46,63.46,0,0,0,16.07,2,62.75,62.75,0,0,0,16-2,38,38,0,0,0,13.13-6.18,29.86,29.86,0,0,0,8.89-10.72,28.45,28.45,0,0,0,1.67-4.25c-2.9,1-5.88,1.93-9.26,2.8a9.24,9.24,0,0,0-4.6,2.73A19.12,19.12,0,0,1,167.33,52.77Z"/><path class="cls-1" d="M143.52,42.27c36.08,0,35.15-9.07,67.32-12.59-1.29.1-12.41.95-26.07,1.77a32.64,32.64,0,0,0-3.14-12.59,30,30,0,0,0-8.89-10.72A38,38,0,0,0,159.61,2a62.75,62.75,0,0,0-16-2,67.49,67.49,0,0,0-10.92.86,48.24,48.24,0,0,0-9.86,2.69,37.51,37.51,0,0,0-8.42,4.6,28.44,28.44,0,0,0-6.57,6.66,30.86,30.86,0,0,0-4.2,8.69,34.34,34.34,0,0,0-1.4,8c-14.48-.87-26.09-1.77-26.09-1.77C108.36,33.2,107.42,42.27,143.52,42.27ZM119.79,15.62a27.29,27.29,0,0,1,9.83-4.88,51.13,51.13,0,0,1,14-1.73,51.52,51.52,0,0,1,14,1.7,26.86,26.86,0,0,1,9.73,4.86,20.13,20.13,0,0,1,5.77,7.74,24,24,0,0,1,1.48,5c.11,1.2,0,3.21-4.76,4-9.42.45-18.85.79-26.3.79s-16.87-.34-26.31-.8c-4.63-.71-4.85-2.64-4.75-3.85a23.18,23.18,0,0,1,1.5-5A20,20,0,0,1,119.79,15.62Z"/></g></g></svg>