<svg xmlns="http://www.w3.org/2000/svg" viewBox="0 0 522.53 14.85"><defs><style>.cls-1{fill:#fff;}</style></defs><g id="Camada_2" data-name="Camada 2"><g id="Camada_1-2" data-name="Camada 1"><path class="cls-1" d="M0,14.56V.26H11.92V1.48H1.42V6.4h10V7.59h-10v5.76H12.08v1.21Z"/><path class="cls-1" d="M29.71,8.1l-6.17,6.46H21.9l7-7.34-6.65-7h1.65l5.82,6.12L35.55.26h1.64l-6.65,7,7,7.34H35.89Z"/><path class="cls-1" d="M62.07,4.65a4.88,4.88,0,0,1-.35,1.9,3.35,3.35,0,0,1-1.1,1.38,5.2,5.2,0,0,1-1.93.85,12.32,12.32,0,0,1-2.85.29H49.42v5.49h-1.3V.26h7.72a12.32,12.32,0,0,1,2.85.29,5.54,5.54,0,0,1,1.93.83,3.35,3.35,0,0,1,1.1,1.38A4.86,4.86,0,0,1,62.07,4.65Zm-1.34,0A3.36,3.36,0,0,0,60.39,3a2.23,2.23,0,0,0-1-1,5.7,5.7,0,0,0-1.78-.45C56.85,1.52,56,1.48,55,1.48H49.42V7.85h6.82a9.07,9.07,0,0,0,1.28-.06,6,6,0,0,0,1.22-.24,3.08,3.08,0,0,0,1-.52,2.68,2.68,0,0,0,.71-.93A3.55,3.55,0,0,0,60.73,4.65Z"/><path class="cls-1" d="M72.82,14.56V.26h1.3V13.35H84.58v1.21Z"/><path class="cls-1" d="M112.18,7.42a7.31,7.31,0,0,1-.7,3.33,6.41,6.41,0,0,1-1.91,2.31,8.19,8.19,0,0,1-2.87,1.35,14.08,14.08,0,0,1-3.57.44,14.12,14.12,0,0,1-3.59-.44,8.21,8.21,0,0,1-2.89-1.35,6.46,6.46,0,0,1-1.93-2.31A7.44,7.44,0,0,1,94,7.42a7.65,7.65,0,0,1,.33-2.32,6.42,6.42,0,0,1,.9-1.88,6.17,6.17,0,0,1,1.41-1.43,8.14,8.14,0,0,1,1.84-1,10.75,10.75,0,0,1,2.18-.6A14.84,14.84,0,0,1,103.13,0a14.08,14.08,0,0,1,3.57.44,8.19,8.19,0,0,1,2.87,1.35,6.25,6.25,0,0,1,1.91,2.31A7.29,7.29,0,0,1,112.18,7.42Zm-1.33,0a6.78,6.78,0,0,0-.5-2.68,5,5,0,0,0-1.46-2,6.57,6.57,0,0,0-2.41-1.2,12,12,0,0,0-3.35-.41,12.17,12.17,0,0,0-3.36.41,6.76,6.76,0,0,0-2.43,1.21,5,5,0,0,0-1.48,2,6.62,6.62,0,0,0-.5,2.67,6.66,6.66,0,0,0,.5,2.69,4.93,4.93,0,0,0,1.48,2,6.76,6.76,0,0,0,2.43,1.21,12.56,12.56,0,0,0,3.36.41,12.43,12.43,0,0,0,3.35-.41,6.74,6.74,0,0,0,2.41-1.21,5,5,0,0,0,1.46-2A6.83,6.83,0,0,0,110.85,7.42Z"/><path class="cls-1" d="M124.55,8.44v6.12h-1.3V.26h7.12a13.33,13.33,0,0,1,2.8.25,5.16,5.16,0,0,1,1.91.78,3,3,0,0,1,1.09,1.28,4.35,4.35,0,0,1,.34,1.8,3.77,3.77,0,0,1-.84,2.57A4.68,4.68,0,0,1,133,8.26l4.89,6.3H136.2L131.59,8.4a5.68,5.68,0,0,1-.59,0h-6.45Zm10.63-4.07a3,3,0,0,0-.32-1.48A2.16,2.16,0,0,0,133.81,2a6.38,6.38,0,0,0-1.92-.42c-.78-.08-1.75-.11-2.9-.11h-4.44V7.22H129q1.73,0,2.91-.09a6.89,6.89,0,0,0,1.93-.41,2.11,2.11,0,0,0,1.06-.86A2.94,2.94,0,0,0,135.18,4.37Z"/><path class="cls-1" d="M148.26,14.56V.26h11.92V1.48h-10.5V6.4h10V7.59h-10v5.76h10.66v1.21Z"/><path class="cls-1" d="M204,7.42a7.31,7.31,0,0,1-.7,3.33,6.41,6.41,0,0,1-1.91,2.31,8.19,8.19,0,0,1-2.87,1.35,14.08,14.08,0,0,1-3.57.44,14.12,14.12,0,0,1-3.59-.44,8.34,8.34,0,0,1-2.9-1.35,6.44,6.44,0,0,1-1.92-2.31,7.31,7.31,0,0,1-.7-3.33,7.65,7.65,0,0,1,.33-2.32,6.42,6.42,0,0,1,.9-1.88,6.17,6.17,0,0,1,1.41-1.43,7.93,7.93,0,0,1,1.84-1,10.58,10.58,0,0,1,2.18-.6A14.84,14.84,0,0,1,195,0a14.08,14.08,0,0,1,3.57.44,8.19,8.19,0,0,1,2.87,1.35,6.25,6.25,0,0,1,1.91,2.31A7.29,7.29,0,0,1,204,7.42Zm-1.33,0a6.78,6.78,0,0,0-.5-2.68,5.11,5.11,0,0,0-1.46-2,6.57,6.57,0,0,0-2.41-1.2,13.93,13.93,0,0,0-6.71,0,6.89,6.89,0,0,0-2.44,1.21,5.11,5.11,0,0,0-1.47,2,6.62,6.62,0,0,0-.5,2.67,6.66,6.66,0,0,0,.5,2.69,5,5,0,0,0,1.47,2,6.89,6.89,0,0,0,2.44,1.21,12.56,12.56,0,0,0,3.36.41,12.49,12.49,0,0,0,3.35-.41,6.74,6.74,0,0,0,2.41-1.21,5.08,5.08,0,0,0,1.46-2A6.83,6.83,0,0,0,202.7,7.42Z"/><path class="cls-1" d="M241.92,2.37c-.27-.13-.58-.27-.94-.42a9,9,0,0,0-1.21-.4,13.44,13.44,0,0,0-3.44-.42,15.09,15.09,0,0,0-2.24.15,6.7,6.7,0,0,0-1.67.45,2.76,2.76,0,0,0-1,.78A1.76,1.76,0,0,0,231,3.62a1.42,1.42,0,0,0,.34,1,3,3,0,0,0,.92.72,7.83,7.83,0,0,0,1.35.57c.52.17,1.07.33,1.65.47l1.79.46c.61.15,1.21.32,1.79.49s1.13.38,1.65.6a5.8,5.8,0,0,1,1.35.76,3.61,3.61,0,0,1,.92,1,2.43,2.43,0,0,1,.34,1.3,3.07,3.07,0,0,1-.3,1.4,3.28,3.28,0,0,1-.82,1,4.51,4.51,0,0,1-1.21.72,8.25,8.25,0,0,1-1.48.45,13.72,13.72,0,0,1-1.62.24c-.56,0-1.11.07-1.65.07a20.4,20.4,0,0,1-3.38-.27,21.43,21.43,0,0,1-2.89-.74v-1.6a9.43,9.43,0,0,0,3,1.16,17,17,0,0,0,3.32.31,17.61,17.61,0,0,0,2.27-.14,7.6,7.6,0,0,0,1.8-.47,2.94,2.94,0,0,0,1.18-.83,1.89,1.89,0,0,0,.42-1.25,1.72,1.72,0,0,0-.33-1,3.25,3.25,0,0,0-.92-.78,7,7,0,0,0-1.35-.6c-.52-.17-1.07-.34-1.64-.48s-1.17-.3-1.79-.44-1.21-.3-1.78-.47a14.32,14.32,0,0,1-1.64-.56,6.46,6.46,0,0,1-1.36-.73,3.37,3.37,0,0,1-.91-1,2.33,2.33,0,0,1-.34-1.28A2.89,2.89,0,0,1,230,2.39a3,3,0,0,1,.74-1,4.74,4.74,0,0,1,1.11-.69,7.44,7.44,0,0,1,1.36-.43,11.74,11.74,0,0,1,1.5-.24c.53,0,1-.07,1.55-.07a15.64,15.64,0,0,1,1.57.07c.5,0,1,.12,1.44.19s.91.18,1.35.28l1.34.33Z"/><path class="cls-1" d="M254.4,14.56V.26h1.3v14.3Z"/><path class="cls-1" d="M279.32,2.37,278.39,2a9.2,9.2,0,0,0-1.22-.4,13.17,13.17,0,0,0-1.54-.3,13.66,13.66,0,0,0-1.89-.12,15.14,15.14,0,0,0-2.25.15,6.83,6.83,0,0,0-1.67.45,2.76,2.76,0,0,0-1,.78,1.76,1.76,0,0,0-.36,1.11,1.47,1.47,0,0,0,.34,1,3.14,3.14,0,0,0,.92.72,8.18,8.18,0,0,0,1.35.57c.52.17,1.07.33,1.65.47l1.79.46c.62.15,1.21.32,1.79.49s1.13.38,1.65.6a5.8,5.8,0,0,1,1.35.76,3.46,3.46,0,0,1,.92,1,2.43,2.43,0,0,1,.34,1.3,3.07,3.07,0,0,1-.3,1.4,3.14,3.14,0,0,1-.82,1,4.36,4.36,0,0,1-1.21.72,8.39,8.39,0,0,1-1.47.45,14.21,14.21,0,0,1-1.63.24c-.56,0-1.11.07-1.65.07a20.4,20.4,0,0,1-3.38-.27,21.43,21.43,0,0,1-2.89-.74v-1.6a9.58,9.58,0,0,0,3,1.16,16.83,16.83,0,0,0,3.31.31,17.61,17.61,0,0,0,2.27-.14,7.35,7.35,0,0,0,1.8-.47,3.05,3.05,0,0,0,1.19-.83,1.89,1.89,0,0,0,.42-1.25,1.73,1.73,0,0,0-.34-1,3.11,3.11,0,0,0-.92-.78,6.52,6.52,0,0,0-1.35-.6c-.52-.17-1.06-.34-1.64-.48s-1.17-.3-1.79-.44-1.21-.3-1.78-.47a15,15,0,0,1-1.64-.56,6.46,6.46,0,0,1-1.36-.73,3.37,3.37,0,0,1-.91-1,2.33,2.33,0,0,1-.34-1.28,2.89,2.89,0,0,1,.27-1.27,2.91,2.91,0,0,1,.75-1,4.47,4.47,0,0,1,1.1-.69,7.44,7.44,0,0,1,1.36-.43,12.19,12.19,0,0,1,1.51-.24c.52,0,1-.07,1.54-.07s1.08,0,1.58.07,1,.12,1.43.19.91.18,1.36.28l1.33.33Z"/><path class="cls-1" d="M297.6,1.45V14.56h-1.29V1.45H289.8V.26h14.31V1.45Z"/><path class="cls-1" d="M314.17,14.56V.26h11.92V1.48H315.58V6.4h10V7.59h-10v5.76h10.66v1.21Z"/><path class="cls-1" d="M355.7,14.56V2.39l-7.86,12.17h-1.16L338.81,2.34V14.56h-1.3V.26h1.4l8.39,13,8.29-13H357v14.3Z"/><path class="cls-1" d="M382.15,14.56l-2-3.77h-9.71l-2,3.77h-1.42L374.56.26h1.53l7.49,14.3Zm-6.82-13L371.1,9.6h8.45Z"/><path class="cls-1" d="M420.45,2.37,419.52,2a9.2,9.2,0,0,0-1.22-.4,13.17,13.17,0,0,0-1.54-.3,13.66,13.66,0,0,0-1.89-.12,15.14,15.14,0,0,0-2.25.15,6.83,6.83,0,0,0-1.67.45,2.76,2.76,0,0,0-1,.78,1.76,1.76,0,0,0-.36,1.11,1.47,1.47,0,0,0,.34,1,3.14,3.14,0,0,0,.92.72,8.18,8.18,0,0,0,1.35.57c.52.17,1.07.33,1.65.47l1.79.46c.62.15,1.21.32,1.79.49s1.13.38,1.65.6a5.8,5.8,0,0,1,1.35.76,3.46,3.46,0,0,1,.92,1,2.43,2.43,0,0,1,.34,1.3,3.07,3.07,0,0,1-.3,1.4,3.14,3.14,0,0,1-.82,1,4.36,4.36,0,0,1-1.21.72,8.39,8.39,0,0,1-1.47.45,14.21,14.21,0,0,1-1.63.24c-.56,0-1.11.07-1.65.07a20.4,20.4,0,0,1-3.38-.27,21.43,21.43,0,0,1-2.89-.74v-1.6a9.58,9.58,0,0,0,3,1.16,16.83,16.83,0,0,0,3.31.31,17.61,17.61,0,0,0,2.27-.14,7.35,7.35,0,0,0,1.8-.47,3.05,3.05,0,0,0,1.19-.83,1.89,1.89,0,0,0,.42-1.25,1.73,1.73,0,0,0-.34-1A3.11,3.11,0,0,0,419,9.2a6.52,6.52,0,0,0-1.35-.6c-.52-.17-1.06-.34-1.64-.48s-1.17-.3-1.79-.44-1.21-.3-1.78-.47a15,15,0,0,1-1.64-.56,6.46,6.46,0,0,1-1.36-.73,3.37,3.37,0,0,1-.91-1,2.33,2.33,0,0,1-.34-1.28,2.89,2.89,0,0,1,.27-1.27,2.91,2.91,0,0,1,.75-1,4.47,4.47,0,0,1,1.1-.69A7.44,7.44,0,0,1,411.7.31a12.19,12.19,0,0,1,1.51-.24c.52,0,1-.07,1.54-.07s1.08,0,1.58.07,1,.12,1.43.19.91.18,1.36.28l1.33.33Z"/><path class="cls-1" d="M450.09,7.42a7.44,7.44,0,0,1-.7,3.33,6.44,6.44,0,0,1-1.92,2.31,8.11,8.11,0,0,1-2.87,1.35,14,14,0,0,1-3.57.44,14.18,14.18,0,0,1-3.59-.44,8.29,8.29,0,0,1-2.89-1.35,6.34,6.34,0,0,1-1.92-2.31,7.31,7.31,0,0,1-.7-3.33,8,8,0,0,1,.32-2.32,6.7,6.7,0,0,1,.91-1.88,6.17,6.17,0,0,1,1.41-1.43,7.93,7.93,0,0,1,1.84-1,10.58,10.58,0,0,1,2.18-.6A14.81,14.81,0,0,1,441,0a14,14,0,0,1,3.57.44,8.11,8.11,0,0,1,2.87,1.35,6.27,6.27,0,0,1,1.92,2.31A7.42,7.42,0,0,1,450.09,7.42Zm-1.34,0a6.78,6.78,0,0,0-.49-2.68,5.11,5.11,0,0,0-1.46-2,6.54,6.54,0,0,0-2.42-1.2A12,12,0,0,0,441,1.16a12.17,12.17,0,0,0-3.36.41,6.84,6.84,0,0,0-2.43,1.21,5.24,5.24,0,0,0-1.48,2,6.8,6.8,0,0,0-.5,2.67,6.83,6.83,0,0,0,.5,2.69,5.13,5.13,0,0,0,1.48,2,6.84,6.84,0,0,0,2.43,1.21,12.56,12.56,0,0,0,3.36.41,12.38,12.38,0,0,0,3.35-.41,6.71,6.71,0,0,0,2.42-1.21,5.08,5.08,0,0,0,1.46-2A6.83,6.83,0,0,0,448.75,7.42Z"/><path class="cls-1" d="M461.16,14.56V.26h1.3V13.35h10.45v1.21Z"/><path class="cls-1" d="M496.46,14.56l-2-3.77h-9.71l-2,3.77h-1.43L488.87.26h1.53l7.48,14.3Zm-6.82-13L485.41,9.6h8.45Z"/><path class="cls-1" d="M509.24,8.44v6.12h-1.3V.26h7.12a13.33,13.33,0,0,1,2.8.25,5.16,5.16,0,0,1,1.91.78,3,3,0,0,1,1.09,1.28,4.35,4.35,0,0,1,.34,1.8,3.77,3.77,0,0,1-.84,2.57,4.68,4.68,0,0,1-2.72,1.32l4.89,6.3h-1.64L516.28,8.4a5.83,5.83,0,0,1-.59,0h-6.45Zm10.63-4.07a3,3,0,0,0-.32-1.48,2.16,2.16,0,0,0-1-.88,6.38,6.38,0,0,0-1.92-.42c-.79-.08-1.75-.11-2.9-.11h-4.44V7.22h4.4c1.15,0,2.11,0,2.91-.09a6.74,6.74,0,0,0,1.92-.41,2.09,2.09,0,0,0,1.07-.86A2.94,2.94,0,0,0,519.87,4.37Z"/></g></g></svg>